Coordinates
version=1
nRows=11
nColumns=63
inDegrees=yes

Units are S.I. units (second, meters, Newtons, ...)
If the header above contains a line with 'inDegrees', this indicates whether rotational values are in degrees (yes) or radians (no).

endheader
time	pelvis_tilt	pelvis_list	pelvis_rotation	pelvis_tx	pelvis_ty	pelvis_tz	hip_flexion_r	hip_adduction_r	hip_rotation_r	knee_angle_r	knee_angle_r_beta	ankle_angle_r	subtalar_angle_r	mtp_angle_r	hip_flexion_l	hip_adduction_l	hip_rotation_l	knee_angle_l	knee_angle_l_beta	ankle_angle_l	subtalar_angle_l	mtp_angle_l	L5_S1_Flex_Ext	L5_S1_Lat_Bending	L5_S1_axial_rotation	L4_L5_Flex_Ext	L4_L5_Lat_Bending	L4_L5_axial_rotation	L3_L4_Flex_Ext	L3_L4_Lat_Bending	L3_L4_axial_rotation	L2_L3_Flex_Ext	L2_L3_Lat_Bending	L2_L3_axial_rotation	L1_L2_Flex_Ext	L1_L2_Lat_Bending	L1_L2_axial_rotation	L1_T12_Flex_Ext	L1_T12_Lat_Bending	L1_T12_axial_rotation	Abs_r3	Abs_r2	Abs_r1	Abs_t1	Abs_t2	neck_flexion	neck_bending	neck_rotation	arm_flex_r	arm_add_r	arm_rot_r	elbow_flex_r	pro_sup_r	wrist_flex_r	wrist_dev_r	arm_flex_l	arm_add_l	arm_rot_l	elbow_flex_l	pro_sup_l	wrist_flex_l	wrist_dev_l
      0.00000000	     -2.31435092	     -5.51061012	     90.01231967	      0.21014551	      0.79695154	      0.69891002	      5.81612000	     -4.11393501	    -20.46969480	     12.79874511	      0.22338024	     28.37100934	     18.27105859	      0.00000000	      5.25089003	      2.47877710	      5.98111547	     11.34501641	      0.19800789	      9.97836370	    -16.62823311	      0.00000000	     -0.13630841	     -0.25864787	      0.12007720	     -0.25313834	     -0.34400166	      0.12758202	     -0.22394108	     -0.62887642	      0.12758202	     -0.15578688	     -0.62887642	      0.10506755	     -0.12657599	     -0.52743473	      0.09756272	     -0.07788662	     -0.40064555	      0.09005790	     -0.97363732	     -2.92587640	      0.66783334	      0.00000000	      0.00000000	      8.73600934	      0.46419164	     -9.73676295	     -0.61270880	    -28.75825313	     43.64836388	     96.78741344	     68.38712589	     16.27370127	     11.74816985	     26.43554144	    -30.97544521	     70.54618400	     96.08037132	     88.87391226	     12.98973216	      9.16464043
      0.01694915	     -2.41631292	     -5.46970131	     89.54582107	      0.21073938	      0.79717028	      0.69828908	      5.77493872	     -4.12186732	    -19.79372606	     12.62121818	      0.22028181	     28.59938352	     18.29079452	      0.00000000	      5.09770614	      2.59050818	      5.28073211	     11.34345235	      0.19798059	     10.49189434	    -16.13307248	      0.00000000	     -0.14101266	     -0.27029873	      0.15715014	     -0.26187461	     -0.35949731	      0.16697203	     -0.23166970	     -0.65720433	      0.16697203	     -0.16116337	     -0.65720433	      0.13750638	     -0.13094435	     -0.55119317	      0.12768449	     -0.08057463	     -0.41869273	      0.11786261	     -1.00723931	     -3.05767327	      0.87402195	      0.00000000	      0.00000000	      8.85042681	      0.78333934	     -9.25018586	      0.50550912	    -28.60787190	     45.11922940	     96.27463758	     73.85390613	     16.24273830	     10.91080103	     25.83929842	    -30.58952873	     69.35439977	     96.02660421	     88.58821302	     10.34221617	      9.12142271
      0.03389831	     -2.52595201	     -5.38596348	     89.02248457	      0.21138034	      0.79743498	      0.69749689	      5.68916787	     -4.14994502	    -19.11554296	     12.47821373	      0.21778591	     28.72452744	     18.30133394	      0.00000000	      4.84724912	      2.69513154	      4.56873724	     11.22547225	      0.19592145	     10.88378524	    -15.81232303	      0.00000000	     -0.14103833	     -0.28145722	      0.22995697	     -0.26192228	     -0.37433811	      0.24432928	     -0.23171187	     -0.68433509	      0.24432928	     -0.16119271	     -0.68433509	      0.20121235	     -0.13096819	     -0.57394757	      0.18684004	     -0.08058930	     -0.43597724	      0.17246773	     -1.00742269	     -3.18390041	      1.27895168	      0.00000000	      0.00000000	      8.72940551	      0.84246869	     -9.03433063	      0.82523958	    -28.43257803	     45.26807901	     96.11297569	     78.37102606	     16.87915948	     10.99528041	     25.37128448	    -30.12743941	     68.24788157	     95.90345281	     88.04527688	      8.08126589	      9.34397991
      0.05084746	     -2.67655876	     -5.21683872	     88.81307762	      0.21144680	      0.79789808	      0.69670085	      5.44705795	     -4.28645712	    -18.95597625	     12.33649487	      0.21531245	     28.74223034	     18.38174849	      0.00000000	      4.57929818	      2.88603264	      4.41922932	     11.20310851	      0.19553113	     11.09126238	    -15.80811764	      0.00000000	     -0.14783677	     -0.29889040	      0.27079398	     -0.27454766	     -0.39752423	      0.28771861	     -0.24288103	     -0.72672212	      0.28771861	     -0.16896264	     -0.72672212	      0.23694473	     -0.13728122	     -0.60949731	      0.22002011	     -0.08447393	     -0.46298123	      0.20309549	     -1.05598326	     -3.38110800	      1.50607489	      0.00000000	      0.00000000	      8.38496524	      0.79975533	     -9.25434757	      0.84357204	    -28.50189096	     45.17210599	     96.08467420	     79.17196609	     16.96392280	     11.52970693	     25.04894081	    -29.49735810	     67.11102887	     95.47088478	     87.20037611	      7.23225195	      9.44560243
      0.06779661	     -2.77244824	     -5.09884554	     87.96323562	      0.21279226	      0.79818366	      0.69564641	      5.33973963	     -4.26821111	    -18.02108203	     12.20944256	      0.21309497	     28.66956456	     18.32875624	      0.00000000	      4.16791576	      2.90985116	      3.34036792	     10.81967423	      0.18883894	     11.32084505	    -15.55281972	      0.00000000	     -0.13615673	     -0.30977278	      0.41132451	     -0.25285667	     -0.41199779	      0.43703229	     -0.22369190	     -0.75318153	      0.43703229	     -0.15561353	     -0.75318153	      0.35990894	     -0.12643514	     -0.63168864	      0.33420116	     -0.07779996	     -0.47983803	      0.30849338	     -0.97255394	     -3.50421159	      2.28766350	      0.00000000	      0.00000000	      8.08899342	      0.46167483	     -9.38572380	      0.37556239	    -28.21480283	     43.78429052	     96.21290332	     84.07858524	     19.06292435	     11.90346491	     24.89221790	    -29.25094184	     66.62529547	     95.49359508	     85.12973597	      4.66477258	     10.28375248
      0.08474576	     -2.86713472	     -4.93263863	     87.51495798	      0.21341060	      0.79855164	      0.69448094	      5.07528395	     -4.31958056	    -17.67221660	     12.05022317	      0.21031607	     28.54478928	     18.39530305	      0.00000000	      3.76342040	      2.99709472	      2.90753791	     10.53126156	      0.18380519	     11.39739061	    -15.64408406	      0.00000000	     -0.12691226	     -0.31861773	      0.45997345	     -0.23568875	     -0.42376159	      0.48872179	     -0.20850415	     -0.77468716	      0.48872179	     -0.14504802	     -0.77468716	      0.40247677	     -0.11785072	     -0.64972528	      0.37372843	     -0.07251766	     -0.49353887	      0.34498009	     -0.90652156	     -3.60426754	      2.55823434	      0.00000000	      0.00000000	      7.71241076	      0.16414548	     -9.53973614	      0.17214694	    -28.27246805	     43.13419993	     96.39057408	     85.16096401	     19.73040706	     12.64881886	     24.36364403	    -28.98233672	     65.58699440	     95.31782812	     83.45979644	      3.67145949	     10.59909670
      0.10169492	     -3.06458053	     -4.78314816	     86.85056552	      0.21436115	      0.79878631	      0.69351583	      4.92019073	     -4.48506715	    -17.09897031	     12.03551760	      0.21005941	     28.42719686	     18.38494288	      0.00000000	      3.37336789	      3.17438002	      2.33726300	     10.20389020	      0.17809148	     11.43447737	    -15.74326114	      0.00000000	     -0.11551405	     -0.33817150	      0.55590778	     -0.21452113	     -0.44976810	      0.59065202	     -0.18977803	     -0.82223019	      0.59065202	     -0.13202100	     -0.82223019	      0.48641931	     -0.10726634	     -0.68959933	      0.45167507	     -0.06600473	     -0.52382766	      0.41693083	     -0.82510528	     -3.82546369	      3.09179230	      0.00000000	      0.00000000	      7.55795618	      0.09781371	     -9.60463873	      0.11878628	    -28.30037998	     42.50999927	     96.47688944	     86.45307215	     21.21734914	     13.09772260	     24.31290804	    -28.94192944	     65.24835445	     95.28769455	     81.27727317	      2.71159021	     11.11849977
      0.11864407	     -3.16664778	     -4.71340629	     86.72306238	      0.21466672	      0.79884356	      0.69228998	      4.73629182	     -4.60476781	    -17.14940373	     12.06018094	      0.21048987	     28.26778309	     18.36108880	      0.00000000	      3.20406891	      3.27584463	      2.23107737	     10.17292693	      0.17755107	     11.58532353	    -15.83502237	      0.00000000	     -0.09013430	     -0.34727927	      0.56165676	     -0.16738842	     -0.46188142	      0.59676031	     -0.14808165	     -0.84437481	      0.59676031	     -0.10301450	     -0.84437481	      0.49144967	     -0.08369871	     -0.70817188	      0.45634612	     -0.05150274	     -0.53793558	      0.42124257	     -0.64382032	     -3.92849252	      3.12376641	      0.00000000	      0.00000000	      7.54476338	      0.17253248	     -9.72906304	      0.17859740	    -28.54529050	     42.53920468	     96.59096994	     86.61837721	     21.35981673	     13.15153012	     24.28886824	    -29.02497065	     65.07182715	     95.28279569	     81.17123363	      2.62040666	     11.06182040
      0.13559322	     -3.45880548	     -4.48445846	     85.67672064	      0.21634557	      0.79908587	      0.69129951	      4.55671805	     -4.85253526	    -16.17413666	     12.13123841	      0.21173005	     28.23561042	     18.39126959	      0.00000000	      2.64121580	      3.52799268	      1.24787595	      9.66244052	      0.16864140	     11.38256421	    -15.81389206	      0.00000000	     -0.08734481	     -0.38201907	      0.65003960	     -0.16220804	     -0.50808537	      0.69066707	     -0.14349878	     -0.92884117	      0.69066707	     -0.09982638	     -0.92884117	      0.56878465	     -0.08110839	     -0.77901329	      0.52815717	     -0.04990882	     -0.59174754	      0.48752970	     -0.62389521	     -4.32147615	      3.61532523	      0.00000000	      0.00000000	      7.60770502	      0.42889532	     -9.71631866	      1.47026398	    -28.67039313	     43.86323930	     96.29395933	     87.88139668	     22.32723156	     13.03888517	     23.66950261	    -29.63497897	     64.55560945	     95.58557857	     81.54153575	      2.00463934	     10.34376536
      0.15254237	     -3.69260648	     -4.33616015	     85.11207097	      0.21739128	      0.79915343	      0.69028852	      4.39173576	     -5.09342209	    -15.69349321	     12.25965292	      0.21397131	     28.12735394	     18.39113842	      0.00000000	      2.28056316	      3.74824292	      0.83919244	      9.38596081	      0.16381592	     11.16457504	    -15.93037733	      0.00000000	     -0.07889137	     -0.40969717	      0.67647208	     -0.14650917	     -0.54489724	      0.71875159	     -0.12961064	     -0.99613771	      0.71875159	     -0.09016495	     -0.99613771	      0.59191307	     -0.07325853	     -0.83545448	      0.54963357	     -0.04507853	     -0.63462092	      0.50735406	     -0.56351320	     -4.63457638	      3.76233479	      0.00000000	      0.00000000	      7.88424644	      0.79198372	     -9.65939046	      2.82136545	    -28.86067804	     45.78981413	     96.07501105	     88.14814749	     22.11058288	     13.05285616	     23.19214505	    -30.26055308	     64.19430210	     95.94530313	     84.11695418	      2.79572732	      9.66856853
      0.16949153	     -3.94091858	     -4.24723221	     84.76554749	      0.21826129	      0.79908721	      0.68933139	      4.24929631	     -5.35230892	    -15.42878304	     12.37837381	      0.21604338	     28.05564293	     18.41962688	      0.00000000	      1.98916708	      3.99276830	      0.71026618	      9.10916850	      0.15898498	     10.87508612	    -16.05654521	      0.00000000	     -0.06678180	     -0.44139977	      0.68703846	     -0.12402048	     -0.58706169	      0.72997836	     -0.10971581	     -1.07321939	      0.72997836	     -0.07632492	     -1.07321939	      0.60115865	     -0.06201358	     -0.90010240	      0.55821875	     -0.03815912	     -0.68372824	      0.51527885	     -0.47701570	     -4.99320244	      3.82110181	      0.00000000	      0.00000000	      8.21873782	      1.25433937	     -9.69086316	      4.07921614	    -28.96919506	     47.88876093	     95.73561603	     88.27001579	     21.49574903	     12.39838238	     22.95214850	    -30.97140113	     64.28011241	     96.35279132	     86.11946582	      3.88085149	      8.99485548
